<svg version="1.1" id="beer_svg" xmlns="http://www.w3.org/2000/svg" xmlns:xlink="http://www.w3.org/1999/xlink" x="0px" y="0px"
	 width="612px" height="792px" viewBox="0 0 612 792" enable-background="new 0 0 612 792" xml:space="preserve">
<g>
	<path fill-rule="evenodd" clip-rule="evenodd" d="M281.134,67c12.345,0,24.68,0,37.025,0
		c39.473,12.401,70.734,33.817,85.677,74.794c1.777,4.871,10.563,7.846,16.653,10.382c64.204,26.803,81.504,98.771,36.503,152.052
		c-5.063,5.992-9.153,12.799-17.738,24.953c28.104,0,48.922-0.351,69.723,0.067c52.845,1.063,83.243,31.291,83.812,84.004
		c0.506,47.541,0.372,95.098,0.021,142.64c-0.393,53.916-30.879,84.385-85.212,85.491c-20.021,0.408-40.057,0.066-63.032,0.066
		c0,16.603-0.687,30.476,0.149,44.257c1.586,26.152-7.247,46.214-31.348,58.321c-109.309,0-218.627,0-327.936,0
		c-22.614-12.282-29.401-31.596-29.236-56.699c0.775-116.267,0.775-232.537-0.258-348.798c-0.119-13.585-5.403-29.241-13.368-40.279
		c-40.031-55.501-15.874-129.701,50.3-147c19.153-5.011,33.327-12.346,46.983-27.836c11.777-13.357,32.614-26.73,49.086-26.302
		C224.63,98.043,250.503,76.793,281.134,67z M148.055,283.7c32.841,0,62.583,0.005,92.335,0c47.558-0.01,95.114,0.356,142.666-0.175
		c27.996-0.315,45.145-15.765,46.446-39.944c1.38-25.537-12.521-41.932-40.898-44.246c-20.827-1.694-28.183-13.471-32.583-31.488
		c-12.216-49.984-62.846-65.791-98.492-30.037c-13.047,13.089-24.669,17.118-41.953,10.796
		c-19.003-6.948-39.618-1.561-43.605,17.479c-7.242,34.561-26.493,36.224-55.558,33.807c-32.449-2.702-50.496,31.741-36.7,61.07
		c7.082,15.046,10.811,32.236,13.001,48.858c2.175,16.452,0.481,33.404,0.538,50.135c0.062,17.996,7.231,33.001,26.234,33.243
		c20.259,0.27,28.281-15.124,28.503-34.09C148.261,335.358,148.055,311.608,148.055,283.7z M519.833,569.353
		c0-57.608,0-112.479,0-167.206c-26.188,0-50.248,0-73.1,0c0,57.066,0,111.988,0,167.206
		C471.692,569.353,494.44,569.353,519.833,569.353z"/>
</g>
</svg>