<!--?xml version="1.0" standalone="no"?-->

<svg version="1.0" xmlns="http://www.w3.org/2000/svg" width="300.000000pt" height="300.000000pt" viewBox="0 0 300.000000 300.000000" preserveAspectRatio="xMidYMid meet">
<g transform="translate(0.000000,300.000000) scale(0.100000,-0.100000)" fill="#040404" stroke="none">
<path class="node" id="node1" d="M889 2987 c-39 -29 -77 -183 -109 -432 -11 -88 -20 -163 -20 -167 0
-5 333 -8 740 -8 407 0 740 4 740 8 0 5 -11 91 -24 193 -32 245 -59 351 -99
397 l-20 22 -596 0 c-462 -1 -600 -3 -612 -13z"></path>
<path class="node" id="node2" d="M760 2142 c0 -353 178 -707 433 -860 64 -38 179 -81 220 -82 l27 0 0
-540 0 -540 -200 0 c-187 0 -201 -1 -220 -20 -25 -25 -25 -41 1 -74 l20 -26
459 0 459 0 20 27 c23 28 20 59 -7 81 -11 9 -71 12 -214 12 l-198 0 0 539 0
538 43 6 c65 9 178 59 250 110 230 164 387 498 387 823 l0 104 -717 0 c-395 0
-728 3 -740 6 -23 6 -23 6 -23 -104z"></path>
</g>
<g transform="translate(0.000000,300.000000) scale(0.100000,-0.100000)" fill="#9E9E9E" stroke="none">

</g>
</svg>